<?xml version="1.0" encoding="iso-8859-1"?>
<!-- Generator: Adobe Illustrator 18.1.1, SVG Export Plug-In . SVG Version: 6.00 Build 0)  -->
<svg version="1.1" id="Capa_1" xmlns="http://www.w3.org/2000/svg" xmlns:xlink="http://www.w3.org/1999/xlink" x="0px" y="0px"
	 viewBox="0 0 464.686 464.686" style="enable-background:new 0 0 464.686 464.686;" xml:space="preserve">
<g>
	<path style="fill:#010002;" d="M76.531,464.686h311.625c4.487,0,8.129-3.642,8.129-8.129V50.69c0-4.487-3.642-8.129-8.129-8.129
		h-43.114c-4.487,0-8.129,3.642-8.129,8.129s3.642,8.129,8.129,8.129h34.985v389.611H84.659V58.818h34.994
		c4.487,0,8.129-3.642,8.129-8.129s-3.642-8.129-8.129-8.129H76.531c-4.487,0-8.129,3.642-8.129,8.129v405.868
		C68.402,461.045,72.035,464.686,76.531,464.686z"/>
	<path style="fill:#010002;" d="M152.159,112.02h160.369c4.487,0,8.129-3.642,8.129-8.129V32.449c0-4.487-3.642-8.129-8.129-8.129
		h-26.458V8.129c0-4.487-3.642-8.129-8.129-8.129h-91.203c-4.487,0-8.129,3.642-8.129,8.129v16.2h-26.45
		c-4.487,0-8.129,3.642-8.129,8.129v71.442C144.03,108.378,147.672,112.02,152.159,112.02z M160.287,40.578h26.45
		c4.487,0,8.129-3.642,8.129-8.129V16.257h74.954v16.2c0,4.487,3.642,8.129,8.129,8.129h26.45v55.185H160.287V40.578z"/>
	<circle style="fill:#010002;" cx="232.339" cy="48.942" r="15.2"/>
</g>
<g>
</g>
<g>
</g>
<g>
</g>
<g>
</g>
<g>
</g>
<g>
</g>
<g>
</g>
<g>
</g>
<g>
</g>
<g>
</g>
<g>
</g>
<g>
</g>
<g>
</g>
<g>
</g>
<g>
</g>
</svg>
